<?xml version="1.0" encoding="UTF-8"?>
<svg width="90px" height="79px" viewBox="0 0 90 79" version="1.1" xmlns="http://www.w3.org/2000/svg" xmlns:xlink="http://www.w3.org/1999/xlink">
    <title>LeiBack_Logo_RGB</title>
    <g id="Page-1" stroke="none" stroke-width="1" fill="none" fill-rule="evenodd">
        <g id="Landing-Page_v2" transform="translate(-675.000000, -44.000000)" fill="#EB733E" fill-rule="nonzero">
            <g id="LeiBack_Logo_RGB" transform="translate(675.000000, 44.000000)">
                <path d="M84.3942029,43.9004489 C84.3254203,43.934301 84.2437409,44.133182 84.2007517,44.2008861 C82.8207997,46.3166413 79.4332539,50.5481518 78.8056122,51.5552513 L78.5433783,51.9784023 C78.4616989,52.1095791 78.3714217,52.2365244 78.2768456,52.3634697 L78.1994651,52.4692575 C78.1048889,52.6046658 78.0017149,52.7400742 77.898541,52.8924085 L77.7093887,53.1293731 L77.5546277,53.3240226 C77.5546277,53.1124471 77.5847201,52.862788 77.6105136,52.6131289 C77.6105136,52.456563 77.6105136,52.2999971 77.640606,52.1434312 C77.6706984,51.9868653 77.6621006,51.8345309 77.6749973,51.6779651 C77.9372312,48.618583 78.306938,43.8285132 78.3026391,43.7904296 C78.2983401,43.752346 73.8188697,43.6380952 71.7338955,43.6380952 L71.5920313,43.6380952 L71.4974551,43.6380952 C71.4663162,43.6538567 71.4385778,43.6754121 71.4157757,43.7015679 L71.4157757,43.8031241 C71.4157757,43.8835228 71.4157757,43.9681531 71.4157757,44.0485517 C71.4157757,44.1289504 71.4157757,44.1881916 71.3942811,44.2601273 C71.0202755,50.1376953 70.534498,54.7331156 69.9842367,60.5937575 C69.4855625,66.060869 68.8235294,78.040275 68.8235294,78.1333683 C68.8391161,78.1794827 68.8692341,78.2195045 68.9095077,78.247619 L69.0341763,78.247619 L69.1588449,78.247619 L69.3823885,78.247619 C70.8139275,78.1883779 75.031164,78.0614326 75.031164,78.0614326 C75.031164,78.0614326 75.031164,77.841394 75.0569575,77.7694584 C75.0569575,77.7694584 75.8479581,67.5757497 76.3724258,62.6841237 L76.3724258,62.5571784 C76.3724258,62.3667604 76.3724258,62.2355836 76.3724258,62.1001752 L76.3724258,61.9689984 C76.3724258,61.8589792 76.3724258,61.7489599 76.3724258,61.6431721 L76.4541052,61.7531914 C76.7172123,62.060632 76.9640122,62.3812434 77.1935187,62.7137443 C77.438557,63.1368953 77.6792962,63.5600463 77.9071388,63.9831974 C78.3671228,64.8294995 78.7884166,65.7096536 79.1968136,66.5940393 C79.9749561,68.3743958 80.6537622,70.1952449 81.2302008,72.0484563 C81.5870108,73.1867326 81.9481198,74.3377034 82.2318482,75.4971373 C82.2791363,75.6875552 82.8379954,77.7271433 82.8379954,77.7271433 C82.8379954,77.7271433 84.3297192,77.6763651 84.9874533,77.63405 C86.2771281,77.5494198 87.5324116,77.4478636 88.8048907,77.3801594 C88.7318091,76.7412013 86.5694544,67.9100391 86.1137693,66.5728818 C85.2586683,63.4555746 83.709428,60.5646766 81.578413,58.1098609 L81.3806629,57.9109799 C81.3885742,57.8427711 81.4187424,57.7789266 81.4666412,57.729025 L81.5612173,57.6063112 L81.6729891,57.4624398 L82.446794,56.51035 C82.5413702,56.3918677 82.6316474,56.2691539 82.7262236,56.1464401 L82.8465932,55.9856427 L83.0056531,55.7740672 C84.8240945,53.070132 90.0085872,46.5663005 90,46.5155223 C89.5365144,46.1253248 89.0270112,45.7914554 88.482472,45.5211174 C87.7258628,45.0979663 85.3270677,44.0146997 84.7682086,43.9258379 C84.6463969,43.8935549 84.5193638,43.8849313 84.3942029,43.9004489 Z" id="Path"></path>
                <path d="M37.036636,42.1421901 C36.0775737,42.0869484 35.1214212,42.2909087 34.2715655,42.7320171 C31.3372049,44.2279549 29.6399638,47.3865208 28.2986658,50.2074322 C26.8915484,53.2823213 25.7036438,56.4499765 24.7435751,59.687404 C23.8754211,62.4613002 23.102764,65.7010742 22.3995592,68.5262596 C21.7267399,71.2189478 20.7978151,75.5016041 20.4201681,77.1556839 C21.8309184,77.3907599 23.9795996,77.2112474 25.3773275,77.2240697 L25.9112422,77.2240697 C25.9877867,77.2305785 26.0647586,77.2305785 26.1413031,77.2240697 C26.170054,77.2201072 26.1979299,77.2114395 26.2237777,77.198425 L26.2541631,77.1300393 C26.2618846,77.0988095 26.2735509,77.0686558 26.2888892,77.040283 C26.3366377,76.9120598 26.3843862,76.8094812 26.4277939,76.7026285 C27.2395179,74.826295 29.3881991,65.3505973 29.7267792,65.2950339 L36.9411391,65.2394705 C36.9411391,65.2394705 36.546129,73.4585804 36.546129,76.9633491 L36.546129,77.2069732 L36.546129,77.3181001 L36.546129,77.4206787 C36.5734303,77.4571796 36.6173253,77.4779897 36.6633298,77.4762421 L36.7501452,77.4762421 L36.980206,77.4762421 C37.84836,77.5189831 38.4170009,77.4762421 39.2634511,77.4762421 C40.2922136,77.4505974 42.8879941,77.3052777 42.8879941,77.3052777 C42.8879941,77.3052777 42.9400834,71.7788559 42.9574464,70.8129075 L43.0572842,64.9958463 C43.1701442,59.0120949 43.2656411,52.5026282 41.4381769,46.8095162 C40.7653575,44.745122 39.510875,42.334525 37.036636,42.1421901 Z M35.8689689,48.8354435 C36.1915399,48.690164 36.5666708,48.7142534 36.867346,48.8995551 C37.1888926,49.1992648 37.3749603,49.6134124 37.3838976,50.0492902 C37.7354285,52.829563 37.7616448,55.6403813 37.4620315,58.4265421 C37.4620315,58.4906537 37.4620315,58.5547654 37.4620315,58.6146029 L37.4620315,58.7086333 L37.3838976,59.1360441 L37.2927415,59.1360441 C36.1771635,59.2001557 31.1548925,59.1616887 31.0246694,59.1574146 C31.0722174,59.0328999 31.1127922,58.9059106 31.146211,58.777019 C31.259071,58.4179939 31.3892941,58.0632429 31.5195172,57.7127661 C32.4744866,55.0799154 33.3426407,52.3957755 34.809821,49.9509857 C35.0085302,49.5594235 35.2949971,49.2174349 35.6475896,48.9508444 C35.7186355,48.9074718 35.7925998,48.8689156 35.8689689,48.8354435 L35.8689689,48.8354435 Z" id="Shape"></path>
                <path d="M16.9679778,45.0048651 C15.3140099,43.7441825 13.3777836,42.9073057 11.3275821,42.5669703 C10.6427376,42.4391087 2.18639774,41.9020899 2.16087559,42.2473162 C2.16087559,42.2473162 1.38244993,50.4347218 0.82946996,59.546993 C0.302012139,68.2032245 0,77.3794265 0,77.3794265 C0,77.3794265 9.27304878,78.0272587 12.5866749,76.2585064 C15.9003011,74.489754 18.1930411,71.2804274 17.5805095,67.2229521 C16.9679778,63.1654768 11.2892988,59.5810895 11.2850451,59.5768274 C11.8295177,59.9604122 15.6067963,57.9700331 16.2065669,57.5523518 C17.9378196,56.3589767 18.9629594,54.2748323 19.4095971,52.267405 C19.7397506,51.0112631 19.7485284,49.6919972 19.4351192,48.4315564 C19.0406812,47.2170697 18.3123559,46.1386838 17.3337953,45.3202571 C17.2146919,45.1881334 17.0913349,45.0858441 16.9679778,45.0048651 Z M11.0595995,68.3566584 C10.8681833,71.4679578 5.74673803,71.1483037 5.74673803,71.1483037 L6.32524015,62.8330366 C8.57118958,63.8260951 11.2510156,65.2496211 11.0595995,68.3566584 Z M7.0398431,53.929606 L7.35037995,47.7794622 C8.65626342,47.8987997 9.99617644,47.996827 11.2892988,48.2312399 C12.0968645,48.3237102 12.8405293,48.7160422 13.373608,49.3308498 C13.658787,49.7347182 13.8333178,50.2064369 13.8797973,50.6989691 C13.9723671,51.284607 13.8675995,51.8844557 13.5820389,52.4037907 C12.9439851,53.4650421 11.4977297,53.7250274 10.361994,53.8784613 C10.1578167,53.9082957 7.03135304,54.0574676 7.0398431,53.929606 Z" id="Shape"></path>
                <path d="M69.5655678,0.232271537 L69.436014,0.232271537 L69.0257603,0.232271537 C67.5488468,0.198054747 63.4635832,-0.062848283 63.4376724,0.0141394962 L63.4117617,0.582993643 C63.1828833,5.81388553 62.7251265,10.3732729 62.3839681,15.6084419 C61.9737143,21.8530062 61.2352576,34.6928569 61.2611684,34.8938806 C61.2870791,35.0949042 61.2611684,35.2360485 61.2611684,35.3814699 C61.2611684,35.4370721 61.2611684,35.4883973 61.2611684,35.5439996 C61.2633185,35.5781833 61.2633185,35.6124663 61.2611684,35.64665 L61.2611684,35.7236378 C61.2611684,35.7621316 61.2611684,35.8562278 61.2611684,35.8861675 C61.2611684,35.9161072 61.464136,35.9374927 61.5375498,35.9460469 L62.2285035,36.0102034 C62.6905788,36.0486973 63.1569725,36.078637 63.6190478,36.0957454 C64.8800382,36.1427934 66.1280733,36.0957454 67.3890638,36.0059263 C67.5488468,36.0059263 67.6136237,35.9588782 67.6136237,35.7963484 L67.6136237,35.64665 L67.6136237,35.4199637 C67.6136237,35.2873737 67.6395345,35.1633378 67.6524899,35.0350248 C68.0843359,30.7964199 68.3693543,25.3687815 68.7234681,19.3893973 C69.0430341,13.9916985 69.3050207,8.58687128 69.5094279,3.17491554 C69.5612494,1.83190651 69.5439755,2.25961639 69.5698863,0.933715748 C69.5698863,0.826788277 69.5698863,0.719860806 69.5698863,0.612933335 L69.5698863,0.437572282 C69.5844748,0.369726757 69.5829967,0.299456424 69.5655678,0.232271537 Z" id="Path"></path>
                <path d="M35.5316951,30.0344165 C35.4755665,29.7726383 31.0111897,29.6567692 27.673701,29.6052719 C27.8723097,26.6699226 28.0450128,23.4298806 28.2479391,20.0095979 C28.5616831,14.6395681 28.8207379,9.26667736 29.0251033,3.89092563 C29.0769143,2.55628583 29.0596439,2.98113902 29.0855494,1.663665 C29.0855494,1.55637885 29.0855494,1.44909269 29.0855494,1.34609798 L29.0855494,1.17014868 C29.0860735,1.1073797 29.0758534,1.04497928 29.0553264,0.985616489 L28.9473869,0.985616489 C28.8092243,0.985616489 28.6753794,0.985616489 28.515629,0.985616489 C27.0390169,0.946993472 22.954587,0.689506694 22.9286816,0.766752728 L22.9027761,1.31176641 C22.6868971,6.51299932 22.2292337,11.0404752 21.8924626,16.2459995 C21.7197594,18.8637818 21.4909277,22.6574203 21.2836839,26.1764063 C21.0375819,29.6095633 20.7742096,33.0427203 20.4201681,36.4758774 C20.4248205,36.4985315 20.4248205,36.5218864 20.4201681,36.5445405 C20.4470946,36.5378187 20.4752755,36.5378187 20.5022021,36.5445405 C20.8648787,36.626078 23.66267,36.8535247 24.1721443,36.8406503 C25.7912365,36.8063187 27.4664572,36.9136049 29.0812318,36.8406503 C29.582071,36.8406503 35.1992415,36.7977359 35.2121942,36.1368531 C35.225147,35.4759704 35.6266818,30.4506868 35.5316951,30.0344165 Z" id="Path"></path>
                <path d="" id="Path"></path>
                <path d="M57.4011966,0.221416467 C57.4011966,0.0128854505 56.926669,0.085232946 56.6269673,0.0724657409 C55.494761,0.0171411855 54.2501666,-0.0169046947 53.1221229,0.00862971549 L52.3687062,0.00862971549 C50.7549563,-0.0103950176 49.1452819,0.17834091 47.5776422,0.57038674 C45.9510657,0.982892444 44.4692156,1.85094177 43.2985685,3.07701467 C41.7459475,4.77930868 40.9633931,7.37105132 41.1548692,10.1628135 C41.2614154,11.9917062 41.8355409,13.7599894 42.8198784,15.2909742 C43.3136156,16.0307604 43.9175507,16.6869901 44.6097633,17.2358451 C44.9921596,17.5407962 45.3987148,17.8126829 45.82522,18.0486905 L45.9750709,18.1380609 C44.2559488,19.0402768 41.7001597,20.7893839 40.7302918,23.5854018 C40.0864446,25.4167944 39.9200362,27.3880117 40.2474392,29.3051097 C41.2589323,35.1439781 48.0230322,36.1142857 52.7599834,36.1142857 C53.6507633,36.1142857 54.2793043,36.0419382 54.4249926,35.901499 C54.476461,35.8457794 54.5148889,35.7788436 54.5373807,35.7057352 C54.5802466,35.5892244 54.6150206,35.4697674 54.6414438,35.3482534 C54.7246943,34.9992831 54.7788071,34.6460571 54.8287574,34.2928311 C54.8911952,33.8672576 54.9411455,33.4416841 54.9869332,33.0161106 C55.032721,32.5905371 55.0660212,32.2202882 55.1034839,31.8202491 C55.1409466,31.42021 55.1575967,31.1010298 55.2075469,30.7435481 C55.2138309,30.71267 55.2138309,30.6808 55.2075469,30.6499219 C55.1784093,30.4967155 54.8287574,30.5052269 54.7205318,30.5009712 C54.3916924,30.5009712 54.0628531,30.5009712 53.7340138,30.5009712 C53.2969489,30.5009712 52.8640465,30.5009712 52.4269816,30.4711811 C51.9899166,30.4413909 51.594477,30.4456467 51.4321386,30.4286237 L51.1116243,30.4030893 C50.2451725,30.366914 49.3871992,30.2138 48.5599977,29.9477257 C47.3736786,29.4966177 46.5037113,28.7518641 46.2289848,27.9560417 C46.0859423,27.4751939 46.070143,26.9641699 46.183197,26.4750459 C46.3402198,25.6280752 46.7201469,24.8409061 47.2821031,24.1982276 C48.2478084,23.100248 49.6963664,22.5427467 50.8493853,22.1810092 C52.2140774,21.6977725 53.6036733,21.2914484 55.0119084,20.963869 C55.2239146,20.9270484 55.4327049,20.8729704 55.6362868,20.8021511 C55.757,20.7468265 55.7403499,20.5425512 55.7528375,20.3127415 L55.940151,17.3890516 C55.940151,17.0485928 55.9776137,16.4400227 55.940151,16.1719114 C55.940151,16.0740295 55.3740479,15.8740099 55.0202334,15.7463379 L54.9619581,15.7250592 C54.4582928,15.5463183 53.9421399,15.4016233 53.4426372,15.2569283 C52.7272757,15.0684775 52.0238791,14.835394 51.3364005,14.5589878 C50.2600255,14.1501626 49.2707492,13.5331907 48.4226344,12.7417889 C47.6223827,11.993791 47.1511394,10.9473424 47.1156022,9.83937764 C47.1405752,9.05842467 47.4221126,8.30883631 47.9148066,7.71151012 C49.4466151,5.84324244 52.2896183,5.77940642 54.7996197,5.71982613 C55.1617592,5.71982613 56.9016938,5.62619996 57.1764203,5.59640981 C57.3720589,5.59640981 57.4428218,5.56661967 57.4469843,5.33680997 L57.4719595,2.55355926 C57.4969346,1.77901549 57.4511469,0.791684961 57.4011966,0.221416467 Z" id="Path"></path>
                <path d="M65.1719815,44.4162948 C64.9473638,44.4162948 64.7227461,44.4331943 64.4981284,44.4669931 C63.8126462,44.5387167 63.1319212,44.6487428 62.4592909,44.796532 C62.0964469,44.8725794 61.7422421,44.9528517 61.3837177,45.0373489 C61.0251933,45.121846 60.6753081,45.2190177 60.3254228,45.3246392 C59.9755376,45.4302606 59.6256523,45.5316572 59.2844062,45.6499532 C58.9431601,45.7682492 58.601914,45.8949949 58.269307,46.0301904 C57.9367,46.1653858 57.6040931,46.3048061 57.2801252,46.4526761 C56.9561574,46.6005461 56.6451483,46.7653156 56.3341392,46.9385347 C56.0231301,47.1117539 55.7207601,47.2976476 55.4270292,47.491991 C55.1332984,47.6863345 54.8438872,47.9144768 54.563115,48.1130451 C51.0815408,50.8549776 48.5761896,55.1727819 47.5610904,59.3891896 C46.5459912,63.6055973 46.5589499,68.5698048 48.4725199,72.4270996 C49.5466564,74.6193137 51.2798258,76.4383013 53.4400266,77.6405737 C55.669134,78.8105983 58.2260831,79.2419897 60.7271429,78.8700072 L63.2108963,78.578492 L63.37504,72.3764013 C63.37504,72.3764013 61.068389,72.4989222 60.5457209,72.4989222 C60.0230528,72.4989222 59.366478,72.4989222 58.7790164,72.4313245 C57.6122432,72.360016 56.4902109,71.9658789 55.5436577,71.2948378 C54.4111993,70.3750488 53.6327101,69.1055196 53.3363569,67.6952593 C53.0480313,66.1436305 53.0014283,64.5582611 53.1981306,62.992993 C53.4332565,60.4265677 54.2619016,57.9460208 55.6214099,55.7389128 C57.141899,53.2462469 59.2800866,51.8647185 62.1396427,51.0915696 C62.2433124,51.0619956 62.5456823,50.9986227 62.5456823,50.9986227 C62.9085263,50.9141256 65.3706818,50.576137 65.4441145,50.6395098 C65.6757465,48.7566036 65.7940187,46.8620084 65.7983193,44.9655263 C65.7983193,44.8092066 65.7983193,44.6444371 65.7983193,44.4923423 C65.7983193,44.3402474 65.7983193,44.4078451 65.6989692,44.3951705 C65.6155801,44.3889114 65.5318232,44.3889114 65.4484341,44.3951705 L65.1719815,44.4162948 Z" id="Path"></path>
            </g>
        </g>
    </g>
</svg>