<?xml version="1.0" encoding="UTF-8"?><svg width="90" height="79" xmlns="http://www.w3.org/2000/svg"><g fill="#EB733E" fill-rule="nonzero"><path d="M84.394 43.9c-.069.034-.15.233-.193.3-1.38 2.117-4.768 6.348-5.395 7.355l-.263.423a5.62 5.62 0 01-.266.385l-.078.106c-.094.136-.197.271-.3.423l-.19.237-.154.195c0-.212.03-.461.056-.71 0-.157 0-.314.03-.47.03-.157.021-.31.034-.466.262-3.06.632-7.85.628-7.888-.005-.038-4.484-.152-6.57-.152h-.236a.27.27 0 00-.081.064v.347c0 .08 0 .14-.022.211-.374 5.878-.86 10.473-1.41 16.334-.498 5.467-1.16 17.446-1.16 17.54a.229.229 0 00.086.114h.472c1.432-.06 5.65-.187 5.65-.187s0-.22.025-.292c0 0 .791-10.193 1.315-15.085v-.127V61.97v-.326l.082.11c.263.308.51.628.74.96.245.424.485.847.713 1.27.46.846.881 1.727 1.29 2.611a52.711 52.711 0 012.033 5.454c.357 1.139.718 2.29 1.002 3.45.047.19.606 2.23.606 2.23s1.492-.052 2.15-.094c1.29-.085 2.544-.186 3.817-.254-.073-.639-2.236-9.47-2.691-10.807a21.647 21.647 0 00-4.536-8.463l-.197-.199a.315.315 0 01.086-.182l.094-.123.112-.144.774-.952c.094-.118.185-.24.28-.364l.12-.16.159-.212c1.818-2.704 7.003-9.208 6.994-9.258a7.611 7.611 0 00-1.518-.995c-.756-.423-3.155-1.506-3.714-1.595a.987.987 0 00-.374-.026zM37.037 42.142a5.338 5.338 0 00-2.765.59c-2.935 1.496-4.632 4.655-5.973 7.475a71.926 71.926 0 00-3.555 9.48c-.869 2.774-1.641 6.014-2.344 8.84-.673 2.692-1.602 6.975-1.98 8.629 1.41.235 3.56.055 4.957.068h.534c.077.007.154.007.23 0a.263.263 0 00.083-.026l.03-.068a.381.381 0 01.035-.09c.048-.128.095-.23.139-.337.812-1.877 2.96-11.352 3.299-11.408l7.214-.056s-.395 8.22-.395 11.724V77.421a.14.14 0 00.117.055h.317c.868.043 1.437 0 2.283 0 1.03-.025 3.625-.17 3.625-.17s.052-5.527.07-6.493l.1-5.817c.112-5.984.208-12.493-1.62-18.186-.673-2.065-1.927-4.475-4.401-4.668zm-1.168 6.693a1.07 1.07 0 01.998.065c.322.3.508.713.517 1.15a36.05 36.05 0 01.078 8.377V58.709l-.078.427h-.091c-1.116.064-6.138.026-6.268.021.047-.124.088-.251.121-.38.113-.359.243-.714.374-1.064.954-2.633 1.823-5.317 3.29-7.762a2.9 2.9 0 01.838-1 1.85 1.85 0 01.221-.116zM16.968 45.005a12.748 12.748 0 00-5.64-2.438c-.685-.128-9.142-.665-9.167-.32 0 0-.779 8.188-1.332 17.3C.302 68.203 0 77.379 0 77.379s9.273.648 12.587-1.12c3.313-1.77 5.606-4.979 4.994-9.036-.613-4.058-6.292-7.642-6.296-7.646.545.383 4.322-1.607 4.922-2.025 1.73-1.193 2.756-3.277 3.203-5.285a7.742 7.742 0 00.025-3.835 6.79 6.79 0 00-2.101-3.112 1.877 1.877 0 00-.366-.315zM11.06 68.357c-.192 3.111-5.313 2.791-5.313 2.791l.578-8.315c2.246.993 4.926 2.417 4.735 5.524zM7.04 53.93l.31-6.15c1.306.119 2.646.217 3.94.451a3.248 3.248 0 012.084 1.1c.285.404.46.875.506 1.368a2.673 2.673 0 01-.298 1.705c-.638 1.061-2.084 1.321-3.22 1.474-.204.03-3.33.18-3.322.052zM69.566.232h-.54c-1.477-.034-5.562-.295-5.588-.218l-.026.569c-.23 5.23-.687 9.79-1.028 15.025-.41 6.245-1.149 19.085-1.123 19.286.026.2 0 .342 0 .487v.163a.818.818 0 010 .103v.239c0 .03.203.051.277.06l.69.064c.463.039.929.069 1.391.086 1.261.047 2.51 0 3.77-.09.16 0 .225-.047.225-.21v-.376c0-.133.026-.257.038-.385.432-4.239.717-9.666 1.071-15.646.32-5.397.582-10.802.786-16.214.052-1.343.035-.915.06-2.241V.438a.445.445 0 00-.003-.206zM35.532 30.034c-.056-.261-4.52-.377-7.858-.429.198-2.935.371-6.175.574-9.595.314-5.37.573-10.743.777-16.12.052-1.334.035-.909.06-2.226V1.17a.55.55 0 00-.03-.184h-.539C27.039.947 22.955.69 22.929.766l-.026.546c-.216 5.201-.674 9.728-1.01 14.934-.173 2.618-.402 6.411-.61 9.93-.245 3.434-.509 6.867-.863 10.3a.17.17 0 010 .069.17.17 0 01.082 0c.363.081 3.16.309 3.67.296 1.62-.035 3.294.073 4.91 0 .5 0 6.117-.043 6.13-.704.013-.661.415-5.686.32-6.103zM57.401.221c0-.208-.474-.136-.774-.149A50.727 50.727 0 0053.122.01h-.753a18.83 18.83 0 00-4.791.561 8.967 8.967 0 00-4.28 2.507c-1.552 1.702-2.335 4.294-2.143 7.086.106 1.829.68 3.597 1.665 5.128a8.51 8.51 0 001.79 1.945c.382.305.789.577 1.215.813l.15.09c-1.72.901-4.275 2.65-5.245 5.446a11.447 11.447 0 00-.483 5.72c1.012 5.839 7.776 6.81 12.513 6.81.89 0 1.52-.073 1.665-.214a.509.509 0 00.112-.195c.043-.117.078-.236.104-.358.084-.349.138-.702.188-1.055.062-.426.112-.851.158-1.277.046-.425.079-.796.116-1.196.038-.4.055-.719.105-1.076a.235.235 0 000-.094c-.03-.153-.38-.145-.487-.149h-.987c-.437 0-.87 0-1.307-.03-.437-.03-.833-.025-.995-.042l-.32-.026a9.646 9.646 0 01-2.552-.455c-1.186-.451-2.056-1.196-2.331-1.992a2.904 2.904 0 01-.046-1.481 4.783 4.783 0 011.1-2.277c.965-1.098 2.413-1.655 3.566-2.017a38.82 38.82 0 014.163-1.217c.212-.037.42-.091.624-.162.121-.055.104-.26.117-.49l.187-2.923c0-.34.038-.949 0-1.217 0-.098-.566-.298-.92-.426l-.058-.02c-.504-.18-1.02-.324-1.52-.47a17.805 17.805 0 01-2.106-.697 8.908 8.908 0 01-2.913-1.817 4.155 4.155 0 01-1.307-2.903c.025-.78.306-1.53.799-2.127C49.447 5.843 52.29 5.779 54.8 5.72c.362 0 2.102-.094 2.376-.124.196 0 .267-.03.271-.26l.025-2.782a22.3 22.3 0 00-.07-2.333zM65.172 44.416c-.225 0-.45.017-.674.051-.685.072-1.366.182-2.039.33-.363.076-.717.156-1.075.24-.359.085-.709.182-1.059.288-.35.105-.7.207-1.04.325-.342.118-.683.245-1.016.38a25.63 25.63 0 00-.989.423c-.324.148-.635.312-.946.486-.31.173-.613.359-.907.553-.294.194-.583.422-.864.621-3.481 2.742-5.987 7.06-7.002 11.276-1.015 4.217-1.002 9.18.912 13.038a12.04 12.04 0 004.967 5.214 11.92 11.92 0 007.287 1.229l2.484-.292.164-6.202s-2.307.123-2.83.123c-.522 0-1.179 0-1.766-.068a6.256 6.256 0 01-3.235-1.136 6.314 6.314 0 01-2.208-3.6 15.294 15.294 0 01-.138-4.702 16.74 16.74 0 012.423-7.254c1.52-2.493 3.66-3.874 6.519-4.647.103-.03.406-.093.406-.093.363-.085 2.825-.423 2.898-.36.232-1.882.35-3.777.354-5.673v-.474c0-.152 0-.084-.099-.097a1.674 1.674 0 00-.25 0l-.277.021z"/></g></svg>