<?xml version="1.0" encoding="UTF-8"?><svg width="21" height="21" xmlns="http://www.w3.org/2000/svg"><g fill="#194436" fill-rule="nonzero"><path d="M10.496 1.892c2.804 0 3.133.013 4.242.063 1.024.045 1.579.216 1.95.362.491.192.841.417 1.208.784.366.366.596.716.783 1.208.142.371.317.925.363 1.95.05 1.11.062 1.438.062 4.243 0 2.805-.012 3.134-.062 4.243-.046 1.025-.217 1.58-.363 1.95a3.258 3.258 0 01-.783 1.209 3.207 3.207 0 01-1.209.783c-.37.142-.925.317-1.95.363-1.108.05-1.437.062-4.241.062-2.804 0-3.134-.012-4.242-.062-1.025-.046-1.579-.217-1.95-.363a3.258 3.258 0 01-1.208-.783 3.207 3.207 0 01-.784-1.209c-.141-.37-.316-.925-.362-1.95-.05-1.109-.063-1.438-.063-4.243 0-2.805.013-3.134.063-4.242.046-1.026.217-1.58.363-1.95.191-.493.416-.843.783-1.21a3.207 3.207 0 011.208-.783c.371-.142.925-.317 1.95-.362 1.109-.055 1.438-.063 4.242-.063m0-1.892c-2.85 0-3.209.013-4.33.063C5.05.113 4.288.292 3.622.55a5.116 5.116 0 00-1.859 1.213A5.207 5.207 0 00.55 3.622C.292 4.288.112 5.05.062 6.172.012 7.29 0 7.647 0 10.498c0 2.85.013 3.209.063 4.33.05 1.117.229 1.88.487 2.55.267.692.63 1.276 1.212 1.86.584.583 1.171.941 1.859 1.212.666.258 1.429.437 2.55.487 1.12.05 1.475.063 4.329.063 2.854 0 3.208-.013 4.33-.063 1.116-.05 1.878-.229 2.55-.487a5.116 5.116 0 001.858-1.213 5.207 5.207 0 001.212-1.859c.258-.666.438-1.429.488-2.55.05-1.121.062-1.475.062-4.33s-.012-3.21-.063-4.33c-.05-1.117-.229-1.88-.487-2.55a5.117 5.117 0 00-1.212-1.86A5.206 5.206 0 0017.379.547C16.712.288 15.95.108 14.83.058 13.704.013 13.346 0 10.496 0z"/><path d="M10.5 5a5.5 5.5 0 000 11c3.035 0 5.5-2.465 5.5-5.5S13.535 5 10.5 5zm0 9.07a3.57 3.57 0 110-7.14 3.57 3.57 0 010 7.14z"/><circle cx="16" cy="5" r="1"/></g></svg>